REM DIRINDEX 1\2,1\3,1\4,1\6,1\5\7,1\5\8
REM DIRNAME cjc114,folder01,folder02,folder03,folder04,folder05,folder06,folder07
TITLE ""
FILE "DB4500_5th_6C_38.mp3" MP3
  TRACK 01 AUDIO
    TITLE "0:"
    INDEX 01 00:00:00
  TRACK 02 AUDIO
    TITLE "2:cjc114_4614"
    INDEX 01 00:00:01
  TRACK 03 AUDIO
    TITLE "0:"
    INDEX 01 00:01:21
  TRACK 04 AUDIO
    TITLE "3:cjc114_4615"
    INDEX 01 00:01:34
  TRACK 05 AUDIO
    TITLE "0:"
    INDEX 01 00:02:51
  TRACK 06 AUDIO
    TITLE "4:cjc114_4616"
    INDEX 01 00:02:67
  TRACK 07 AUDIO
    TITLE "0:"
    INDEX 01 00:04:64
  TRACK 08 AUDIO
    TITLE "2:cjc114_4617"
    INDEX 01 00:05:28
  TRACK 09 AUDIO
    TITLE "0:"
    INDEX 01 00:06:43
  TRACK 10 AUDIO
    TITLE "3:cjc114_4618"
    INDEX 01 00:06:57
  TRACK 11 AUDIO
    TITLE "0:"
    INDEX 01 00:07:56
  TRACK 12 AUDIO
    TITLE "4:cjc114_4619"
    INDEX 01 00:07:72
  TRACK 13 AUDIO
    TITLE "0:"
    INDEX 01 00:10:47
  TRACK 14 AUDIO
    TITLE "2:cjc114_4620"
    INDEX 01 00:11:07
  TRACK 15 AUDIO
    TITLE "0:"
    INDEX 01 00:12:09
  TRACK 16 AUDIO
    TITLE "3:cjc114_4621"
    INDEX 01 00:12:22
  TRACK 17 AUDIO
    TITLE "0:"
    INDEX 01 00:13:55
  TRACK 18 AUDIO
    TITLE "4:cjc114_4622"
    INDEX 01 00:13:69
  TRACK 19 AUDIO
    TITLE "0:"
    INDEX 01 00:16:48
  TRACK 20 AUDIO
    TITLE "2:cjc114_4623"
    INDEX 01 00:17:10
  TRACK 21 AUDIO
    TITLE "0:"
    INDEX 01 00:18:19
  TRACK 22 AUDIO
    TITLE "3:cjc114_4624"
    INDEX 01 00:18:33
  TRACK 23 AUDIO
    TITLE "0:"
    INDEX 01 00:19:50
  TRACK 24 AUDIO
    TITLE "4:cjc114_4625"
    INDEX 01 00:19:62
  TRACK 25 AUDIO
    TITLE "0:"
    INDEX 01 00:22:23
  TRACK 26 AUDIO
    TITLE "2:cjc114_4626"
    INDEX 01 00:22:62
  TRACK 27 AUDIO
    TITLE "0:"
    INDEX 01 00:24:00
  TRACK 28 AUDIO
    TITLE "3:cjc114_4627"
    INDEX 01 00:24:16
  TRACK 29 AUDIO
    TITLE "0:"
    INDEX 01 00:25:27
  TRACK 30 AUDIO
    TITLE "4:cjc114_4628"
    INDEX 01 00:25:41
  TRACK 31 AUDIO
    TITLE "0:"
    INDEX 01 00:28:12
  TRACK 32 AUDIO
    TITLE "2:cjc114_4629"
    INDEX 01 00:28:47
  TRACK 33 AUDIO
    TITLE "0:"
    INDEX 01 00:29:56
  TRACK 34 AUDIO
    TITLE "3:cjc114_4630"
    INDEX 01 00:29:74
  TRACK 35 AUDIO
    TITLE "0:"
    INDEX 01 00:31:33
  TRACK 36 AUDIO
    TITLE "4:cjc114_4631"
    INDEX 01 00:31:49
  TRACK 37 AUDIO
    TITLE "0:"
    INDEX 01 00:35:39
  TRACK 38 AUDIO
    TITLE "2:cjc114_4632"
    INDEX 01 00:36:03
  TRACK 39 AUDIO
    TITLE "0:"
    INDEX 01 00:37:12
  TRACK 40 AUDIO
    TITLE "3:cjc114_4633"
    INDEX 01 00:37:26
  TRACK 41 AUDIO
    TITLE "0:"
    INDEX 01 00:38:45
  TRACK 42 AUDIO
    TITLE "4:cjc114_4634"
    INDEX 01 00:38:61
  TRACK 43 AUDIO
    TITLE "0:"
    INDEX 01 00:42:14
  TRACK 44 AUDIO
    TITLE "2:cjc114_4635"
    INDEX 01 00:42:53
  TRACK 45 AUDIO
    TITLE "0:"
    INDEX 01 00:43:56
  TRACK 46 AUDIO
    TITLE "3:cjc114_4636"
    INDEX 01 00:43:70
  TRACK 47 AUDIO
    TITLE "0:"
    INDEX 01 00:45:16
  TRACK 48 AUDIO
    TITLE "4:cjc114_4637"
    INDEX 01 00:45:32
  TRACK 49 AUDIO
    TITLE "0:"
    INDEX 01 00:49:23
  TRACK 50 AUDIO
    TITLE "2:cjc114_4638"
    INDEX 01 00:49:63
  TRACK 51 AUDIO
    TITLE "0:"
    INDEX 01 00:50:74
  TRACK 52 AUDIO
    TITLE "3:cjc114_4639"
    INDEX 01 00:51:15
  TRACK 53 AUDIO
    TITLE "0:"
    INDEX 01 00:52:39
  TRACK 54 AUDIO
    TITLE "4:cjc114_4640"
    INDEX 01 00:52:63
  TRACK 55 AUDIO
    TITLE "0:"
    INDEX 01 00:56:20
  TRACK 56 AUDIO
    TITLE "2:cjc114_4641"
    INDEX 01 00:56:57
  TRACK 57 AUDIO
    TITLE "0:"
    INDEX 01 00:58:01
  TRACK 58 AUDIO
    TITLE "3:cjc114_4642"
    INDEX 01 00:58:15
  TRACK 59 AUDIO
    TITLE "0:"
    INDEX 01 00:59:34
  TRACK 60 AUDIO
    TITLE "4:cjc114_4643"
    INDEX 01 00:59:61
  TRACK 61 AUDIO
    TITLE "0:"
    INDEX 01 01:04:07
  TRACK 62 AUDIO
    TITLE "2:cjc114_4644"
    INDEX 01 01:04:45
  TRACK 63 AUDIO
    TITLE "0:"
    INDEX 01 01:05:58
  TRACK 64 AUDIO
    TITLE "3:cjc114_4645"
    INDEX 01 01:05:73
  TRACK 65 AUDIO
    TITLE "0:"
    INDEX 01 01:07:21
  TRACK 66 AUDIO
    TITLE "4:cjc114_4646"
    INDEX 01 01:07:29
  TRACK 67 AUDIO
    TITLE "0:"
    INDEX 01 01:11:39
  TRACK 68 AUDIO
    TITLE "2:cjc114_4647"
    INDEX 01 01:11:74
  TRACK 69 AUDIO
    TITLE "0:"
    INDEX 01 01:13:04
  TRACK 70 AUDIO
    TITLE "3:cjc114_4648"
    INDEX 01 01:13:20
  TRACK 71 AUDIO
    TITLE "0:"
    INDEX 01 01:14:31
  TRACK 72 AUDIO
    TITLE "4:cjc114_4649"
    INDEX 01 01:14:45
  TRACK 73 AUDIO
    TITLE "0:"
    INDEX 01 01:18:06
  TRACK 74 AUDIO
    TITLE "2:cjc114_4650"
    INDEX 01 01:18:41
  TRACK 75 AUDIO
    TITLE "0:"
    INDEX 01 01:19:54
  TRACK 76 AUDIO
    TITLE "3:cjc114_4651"
    INDEX 01 01:19:68
  TRACK 77 AUDIO
    TITLE "0:"
    INDEX 01 01:21:21
  TRACK 78 AUDIO
    TITLE "4:cjc114_4652"
    INDEX 01 01:21:31
  TRACK 79 AUDIO
    TITLE "0:"
    INDEX 01 01:23:71
  TRACK 80 AUDIO
    TITLE "2:cjc114_4653"
    INDEX 01 01:24:36
  TRACK 81 AUDIO
    TITLE "0:"
    INDEX 01 01:25:41
  TRACK 82 AUDIO
    TITLE "3:cjc114_4654"
    INDEX 01 01:25:57
  TRACK 83 AUDIO
    TITLE "0:"
    INDEX 01 01:27:12
  TRACK 84 AUDIO
    TITLE "4:cjc114_4655"
    INDEX 01 01:27:26
  TRACK 85 AUDIO
    TITLE "0:"
    INDEX 01 01:29:60
